G04 PROTEUS GERBER X2 FILE*
%TF.GenerationSoftware,Labcenter,Proteus,8.6-SP2-Build23525*%
%TF.CreationDate,2021-09-08T15:11:20+00:00*%
%TF.FileFunction,Legend,Top*%
%TF.FilePolarity,Positive*%
%TF.Part,Single*%
%FSLAX45Y45*%
%MOMM*%
G01*
%TA.AperFunction,Material*%
%ADD70C,0.200000*%
%ADD71C,0.203200*%
%ADD20C,0.508000*%
%ADD21C,0.152400*%
%TA.AperFunction,Profile*%
%ADD19C,0.203200*%
%TD.AperFunction*%
D70*
X+345000Y+3115000D02*
X+455000Y+3115000D01*
X+345000Y+3385000D02*
X+455000Y+3385000D01*
D71*
X+368250Y+3440720D02*
X+352375Y+3425480D01*
X+304750Y+3425480D01*
X+273000Y+3455960D01*
X+273000Y+3486440D01*
X+304750Y+3516920D01*
X+352375Y+3516920D01*
X+368250Y+3501680D01*
X+431750Y+3486440D02*
X+463500Y+3516920D01*
X+463500Y+3425480D01*
D20*
X+97600Y+2200000D02*
X+97469Y+2203158D01*
X+96403Y+2209476D01*
X+94172Y+2215794D01*
X+90527Y+2222112D01*
X+84952Y+2228351D01*
X+78634Y+2232947D01*
X+72316Y+2235880D01*
X+65998Y+2237542D01*
X+59680Y+2238100D01*
X+59500Y+2238100D01*
X+21400Y+2200000D02*
X+21531Y+2203158D01*
X+22597Y+2209476D01*
X+24828Y+2215794D01*
X+28473Y+2222112D01*
X+34048Y+2228351D01*
X+40366Y+2232947D01*
X+46684Y+2235880D01*
X+53002Y+2237542D01*
X+59320Y+2238100D01*
X+59500Y+2238100D01*
X+21400Y+2200000D02*
X+21531Y+2196842D01*
X+22597Y+2190524D01*
X+24828Y+2184206D01*
X+28473Y+2177888D01*
X+34048Y+2171649D01*
X+40366Y+2167053D01*
X+46684Y+2164120D01*
X+53002Y+2162458D01*
X+59320Y+2161900D01*
X+59500Y+2161900D01*
X+97600Y+2200000D02*
X+97469Y+2196842D01*
X+96403Y+2190524D01*
X+94172Y+2184206D01*
X+90527Y+2177888D01*
X+84952Y+2171649D01*
X+78634Y+2167053D01*
X+72316Y+2164120D01*
X+65998Y+2162458D01*
X+59680Y+2161900D01*
X+59500Y+2161900D01*
D21*
X+149340Y+2348920D02*
X+149340Y+2222407D01*
X+149340Y+1851080D02*
X+350000Y+1851080D01*
X+350000Y+1974809D01*
X+350000Y+2348920D02*
X+149340Y+2348920D01*
X+149340Y+1977593D02*
X+149340Y+1851080D01*
X+350000Y+2025191D02*
X+350000Y+2174809D01*
X+350000Y+2225191D02*
X+350000Y+2348920D01*
X+149340Y+2177593D02*
X+149340Y+2022407D01*
D71*
X+449060Y+1973000D02*
X+464300Y+1973000D01*
X+479540Y+1988875D01*
X+479540Y+2052375D01*
X+464300Y+2068250D01*
X+388100Y+2068250D01*
X+418580Y+2131750D02*
X+388100Y+2163500D01*
X+479540Y+2163500D01*
X+1381000Y+3250000D02*
X+1380173Y+3270483D01*
X+1373455Y+3311450D01*
X+1359437Y+3352417D01*
X+1336659Y+3393384D01*
X+1301859Y+3434229D01*
X+1260892Y+3465845D01*
X+1219925Y+3486392D01*
X+1178958Y+3498629D01*
X+1137991Y+3503762D01*
X+1127000Y+3504000D01*
X+873000Y+3250000D02*
X+873827Y+3270483D01*
X+880545Y+3311450D01*
X+894563Y+3352417D01*
X+917341Y+3393384D01*
X+952141Y+3434229D01*
X+993108Y+3465845D01*
X+1034075Y+3486392D01*
X+1075042Y+3498629D01*
X+1116009Y+3503762D01*
X+1127000Y+3504000D01*
X+873000Y+3250000D02*
X+873827Y+3229517D01*
X+880545Y+3188550D01*
X+894563Y+3147583D01*
X+917341Y+3106616D01*
X+952141Y+3065771D01*
X+993108Y+3034155D01*
X+1034075Y+3013608D01*
X+1075042Y+3001371D01*
X+1116009Y+2996238D01*
X+1127000Y+2996000D01*
X+1381000Y+3250000D02*
X+1380173Y+3229517D01*
X+1373455Y+3188550D01*
X+1359437Y+3147583D01*
X+1336659Y+3106616D01*
X+1301859Y+3065771D01*
X+1260892Y+3034155D01*
X+1219925Y+3013608D01*
X+1178958Y+3001371D01*
X+1137991Y+2996238D01*
X+1127000Y+2996000D01*
X+809500Y+3504000D02*
X+936500Y+3504000D01*
X+873000Y+3567500D02*
X+873000Y+3440500D01*
X+968250Y+3608140D02*
X+968250Y+3699580D01*
X+1031750Y+3699580D01*
X+1063500Y+3669100D01*
X+1063500Y+3638620D01*
X+1031750Y+3608140D01*
X+968250Y+3608140D01*
X+1111125Y+3684340D02*
X+1127000Y+3699580D01*
X+1174625Y+3699580D01*
X+1190500Y+3684340D01*
X+1190500Y+3669100D01*
X+1174625Y+3653860D01*
X+1127000Y+3653860D01*
X+1111125Y+3638620D01*
X+1111125Y+3608140D01*
X+1190500Y+3608140D01*
X+1559500Y+3123000D02*
X+1940500Y+3123000D01*
X+1508700Y+3250000D02*
X+1510883Y+3226312D01*
X+1516638Y+3203367D01*
X+1534100Y+3162688D01*
X+1559500Y+3123000D01*
X+1508700Y+3250000D02*
X+1509562Y+3301935D01*
X+1520953Y+3349963D01*
X+1541795Y+3393154D01*
X+1571009Y+3430578D01*
X+1607516Y+3461305D01*
X+1650236Y+3484404D01*
X+1698090Y+3498946D01*
X+1750000Y+3504000D01*
X+1991300Y+3250000D02*
X+1989117Y+3226312D01*
X+1983362Y+3203367D01*
X+1965900Y+3162688D01*
X+1940500Y+3123000D01*
X+1991300Y+3250000D02*
X+1990438Y+3301935D01*
X+1979047Y+3349963D01*
X+1958205Y+3393154D01*
X+1928991Y+3430578D01*
X+1892484Y+3461305D01*
X+1849764Y+3484404D01*
X+1801910Y+3498946D01*
X+1750000Y+3504000D01*
X+1623000Y+3605600D02*
X+1654750Y+3636080D01*
X+1686500Y+3636080D01*
X+1718250Y+3605600D01*
X+1718250Y+3575120D01*
X+1686500Y+3544640D01*
X+1654750Y+3544640D01*
X+1623000Y+3575120D01*
X+1623000Y+3605600D01*
X+1686500Y+3575120D02*
X+1718250Y+3544640D01*
X+1781750Y+3605600D02*
X+1813500Y+3636080D01*
X+1813500Y+3544640D01*
X+873000Y+1258000D02*
X+873000Y+1385000D01*
X+1889000Y+1385000D01*
X+1889000Y+877000D01*
X+873000Y+877000D01*
X+873000Y+1004000D01*
X+1000000Y+1131000D02*
X+997564Y+1156876D01*
X+990515Y+1180848D01*
X+979238Y+1202438D01*
X+964122Y+1221170D01*
X+945554Y+1236569D01*
X+923919Y+1248158D01*
X+899606Y+1255460D01*
X+873000Y+1258000D01*
X+1000000Y+1131000D02*
X+997564Y+1104394D01*
X+990515Y+1080081D01*
X+979238Y+1058446D01*
X+964122Y+1039878D01*
X+945554Y+1024762D01*
X+923919Y+1013485D01*
X+899606Y+1006436D01*
X+873000Y+1004000D01*
X+740920Y+1004000D02*
X+817120Y+1004000D01*
X+832360Y+1019875D01*
X+832360Y+1083375D01*
X+817120Y+1099250D01*
X+740920Y+1099250D01*
X+771400Y+1162750D02*
X+740920Y+1194500D01*
X+832360Y+1194500D01*
X+873000Y+2258000D02*
X+873000Y+2385000D01*
X+873000Y+1877000D02*
X+873000Y+2004000D01*
X+1000000Y+2131000D02*
X+997564Y+2156876D01*
X+990515Y+2180848D01*
X+979238Y+2202438D01*
X+964122Y+2221170D01*
X+945554Y+2236569D01*
X+923919Y+2248158D01*
X+899606Y+2255460D01*
X+873000Y+2258000D01*
X+1000000Y+2131000D02*
X+997564Y+2104394D01*
X+990515Y+2080081D01*
X+979238Y+2058446D01*
X+964122Y+2039878D01*
X+945554Y+2024762D01*
X+923919Y+2013485D01*
X+899606Y+2006436D01*
X+873000Y+2004000D01*
X+873000Y+1877000D02*
X+2651000Y+1877000D01*
X+2651000Y+2385000D01*
X+873000Y+2385000D01*
X+740920Y+2004000D02*
X+817120Y+2004000D01*
X+832360Y+2019875D01*
X+832360Y+2083375D01*
X+817120Y+2099250D01*
X+740920Y+2099250D01*
X+756160Y+2146875D02*
X+740920Y+2162750D01*
X+740920Y+2210375D01*
X+756160Y+2226250D01*
X+771400Y+2226250D01*
X+786640Y+2210375D01*
X+786640Y+2162750D01*
X+801880Y+2146875D01*
X+832360Y+2146875D01*
X+832360Y+2226250D01*
X+3889000Y+2873000D02*
X+3887119Y+2921845D01*
X+3871861Y+3019537D01*
X+3840155Y+3117229D01*
X+3789084Y+3214921D01*
X+3712220Y+3312613D01*
X+3614721Y+3395595D01*
X+3517029Y+3450963D01*
X+3419337Y+3486098D01*
X+3321645Y+3504387D01*
X+3254000Y+3508000D01*
X+2619000Y+2873000D02*
X+2620881Y+2921845D01*
X+2636139Y+3019537D01*
X+2667845Y+3117229D01*
X+2718916Y+3214921D01*
X+2795780Y+3312613D01*
X+2893279Y+3395595D01*
X+2990971Y+3450963D01*
X+3088663Y+3486098D01*
X+3186355Y+3504387D01*
X+3254000Y+3508000D01*
X+2619000Y+2873000D02*
X+2620881Y+2824155D01*
X+2636139Y+2726463D01*
X+2667845Y+2628771D01*
X+2718916Y+2531079D01*
X+2795780Y+2433387D01*
X+2893279Y+2350405D01*
X+2990971Y+2295037D01*
X+3088663Y+2259902D01*
X+3186355Y+2241613D01*
X+3254000Y+2238000D01*
X+3889000Y+2873000D02*
X+3887119Y+2824155D01*
X+3871861Y+2726463D01*
X+3840155Y+2628771D01*
X+3789084Y+2531079D01*
X+3712220Y+2433387D01*
X+3614721Y+2350405D01*
X+3517029Y+2295037D01*
X+3419337Y+2259902D01*
X+3321645Y+2241613D01*
X+3254000Y+2238000D01*
X+3508000Y+2873000D02*
X+3507173Y+2893483D01*
X+3500455Y+2934450D01*
X+3486437Y+2975417D01*
X+3463659Y+3016384D01*
X+3428859Y+3057229D01*
X+3387892Y+3088845D01*
X+3346925Y+3109392D01*
X+3305958Y+3121629D01*
X+3264991Y+3126762D01*
X+3254000Y+3127000D01*
X+3000000Y+2873000D02*
X+3000827Y+2893483D01*
X+3007545Y+2934450D01*
X+3021563Y+2975417D01*
X+3044341Y+3016384D01*
X+3079141Y+3057229D01*
X+3120108Y+3088845D01*
X+3161075Y+3109392D01*
X+3202042Y+3121629D01*
X+3243009Y+3126762D01*
X+3254000Y+3127000D01*
X+3000000Y+2873000D02*
X+3000827Y+2852517D01*
X+3007545Y+2811550D01*
X+3021563Y+2770583D01*
X+3044341Y+2729616D01*
X+3079141Y+2688771D01*
X+3120108Y+2657155D01*
X+3161075Y+2636608D01*
X+3202042Y+2624371D01*
X+3243009Y+2619238D01*
X+3254000Y+2619000D01*
X+3508000Y+2873000D02*
X+3507173Y+2852517D01*
X+3500455Y+2811550D01*
X+3486437Y+2770583D01*
X+3463659Y+2729616D01*
X+3428859Y+2688771D01*
X+3387892Y+2657155D01*
X+3346925Y+2636608D01*
X+3305958Y+2624371D01*
X+3264991Y+2619238D01*
X+3254000Y+2619000D01*
X+3635000Y+2873000D02*
X+3633798Y+2903237D01*
X+3624043Y+2963713D01*
X+3603718Y+3024189D01*
X+3570795Y+3084665D01*
X+3520674Y+3145114D01*
X+3460198Y+3193380D01*
X+3399722Y+3225031D01*
X+3339246Y+3244341D01*
X+3278770Y+3253194D01*
X+3254000Y+3254000D01*
X+2873000Y+2873000D02*
X+2874202Y+2903237D01*
X+2883957Y+2963713D01*
X+2904282Y+3024189D01*
X+2937205Y+3084665D01*
X+2987326Y+3145114D01*
X+3047802Y+3193380D01*
X+3108278Y+3225031D01*
X+3168754Y+3244341D01*
X+3229230Y+3253194D01*
X+3254000Y+3254000D01*
X+2873000Y+2873000D02*
X+2874202Y+2842763D01*
X+2883957Y+2782287D01*
X+2904282Y+2721811D01*
X+2937205Y+2661335D01*
X+2987326Y+2600886D01*
X+3047802Y+2552620D01*
X+3108278Y+2520969D01*
X+3168754Y+2501659D01*
X+3229230Y+2492806D01*
X+3254000Y+2492000D01*
X+3635000Y+2873000D02*
X+3633798Y+2842763D01*
X+3624043Y+2782287D01*
X+3603718Y+2721811D01*
X+3570795Y+2661335D01*
X+3520674Y+2600886D01*
X+3460198Y+2552620D01*
X+3399722Y+2520969D01*
X+3339246Y+2501659D01*
X+3278770Y+2492806D01*
X+3254000Y+2492000D01*
X+3063500Y+3563880D02*
X+3079375Y+3548640D01*
X+3142875Y+3548640D01*
X+3158750Y+3563880D01*
X+3158750Y+3579120D01*
X+3142875Y+3594360D01*
X+3079375Y+3594360D01*
X+3063500Y+3609600D01*
X+3063500Y+3624840D01*
X+3079375Y+3640080D01*
X+3142875Y+3640080D01*
X+3158750Y+3624840D01*
X+3190500Y+3640080D02*
X+3190500Y+3548640D01*
X+3238125Y+3594360D01*
X+3285750Y+3548640D01*
X+3285750Y+3640080D01*
X+3349250Y+3609600D02*
X+3381000Y+3640080D01*
X+3381000Y+3548640D01*
X+3000000Y+1873000D02*
X+3000000Y+1746000D01*
X+2936500Y+1238000D02*
X+3063500Y+1238000D01*
X+3063500Y+1746000D01*
X+2936500Y+1746000D01*
X+2936500Y+1238000D01*
X+3000000Y+1238000D02*
X+3000000Y+1111000D01*
X+3195580Y+1365000D02*
X+3104140Y+1365000D01*
X+3104140Y+1444375D01*
X+3119380Y+1460250D01*
X+3134620Y+1460250D01*
X+3149860Y+1444375D01*
X+3149860Y+1365000D01*
X+3149860Y+1444375D02*
X+3165100Y+1460250D01*
X+3195580Y+1460250D01*
X+3134620Y+1523750D02*
X+3104140Y+1555500D01*
X+3195580Y+1555500D01*
X+3500000Y+1127000D02*
X+3500000Y+1254000D01*
X+3436500Y+1254000D02*
X+3563500Y+1254000D01*
X+3563500Y+1762000D01*
X+3436500Y+1762000D01*
X+3436500Y+1254000D01*
X+3500000Y+1762000D02*
X+3500000Y+1889000D01*
X+3395860Y+1381000D02*
X+3304420Y+1381000D01*
X+3304420Y+1460375D01*
X+3319660Y+1476250D01*
X+3334900Y+1476250D01*
X+3350140Y+1460375D01*
X+3350140Y+1381000D01*
X+3350140Y+1460375D02*
X+3365380Y+1476250D01*
X+3395860Y+1476250D01*
X+3319660Y+1523875D02*
X+3304420Y+1539750D01*
X+3304420Y+1587375D01*
X+3319660Y+1603250D01*
X+3334900Y+1603250D01*
X+3350140Y+1587375D01*
X+3350140Y+1539750D01*
X+3365380Y+1523875D01*
X+3395860Y+1523875D01*
X+3395860Y+1603250D01*
X+3750000Y+1127000D02*
X+3750000Y+1254000D01*
X+3686500Y+1254000D02*
X+3813500Y+1254000D01*
X+3813500Y+1762000D01*
X+3686500Y+1762000D01*
X+3686500Y+1254000D01*
X+3750000Y+1762000D02*
X+3750000Y+1889000D01*
X+3645860Y+1381000D02*
X+3554420Y+1381000D01*
X+3554420Y+1460375D01*
X+3569660Y+1476250D01*
X+3584900Y+1476250D01*
X+3600140Y+1460375D01*
X+3600140Y+1381000D01*
X+3600140Y+1460375D02*
X+3615380Y+1476250D01*
X+3645860Y+1476250D01*
X+3569660Y+1523875D02*
X+3554420Y+1539750D01*
X+3554420Y+1587375D01*
X+3569660Y+1603250D01*
X+3584900Y+1603250D01*
X+3600140Y+1587375D01*
X+3615380Y+1603250D01*
X+3630620Y+1603250D01*
X+3645860Y+1587375D01*
X+3645860Y+1539750D01*
X+3630620Y+1523875D01*
X+3600140Y+1555625D02*
X+3600140Y+1587375D01*
D19*
X+0Y+500000D02*
X+4000000Y+500000D01*
X+4000000Y+3750000D01*
X+0Y+3750000D01*
X+0Y+500000D01*
M02*
