G04 PROTEUS GERBER X2 FILE*
%TF.GenerationSoftware,Labcenter,Proteus,8.6-SP2-Build23525*%
%TF.CreationDate,2021-09-08T15:11:20+00:00*%
%TF.FileFunction,AssemblyDrawing,Top*%
%TF.FilePolarity,Positive*%
%TF.Part,Single*%
%FSLAX45Y45*%
%MOMM*%
G01*
%TA.AperFunction,Material*%
%ADD73C,0.050000*%
%ADD30C,0.158330*%
%ADD21C,0.152400*%
%ADD31C,0.160020*%
%ADD71C,0.203200*%
%ADD32C,0.197270*%
%ADD33C,0.176100*%
%ADD34C,0.345440*%
%ADD35C,0.533400*%
%ADD36C,0.322580*%
%ADD37C,0.106680*%
%TA.AperFunction,Profile*%
%ADD19C,0.203200*%
%TD.AperFunction*%
D73*
X+165000Y+3090000D02*
X+635000Y+3090000D01*
X+635000Y+3410000D01*
X+165000Y+3410000D01*
X+165000Y+3090000D01*
X+400000Y+3300000D02*
X+400000Y+3200000D01*
X+450000Y+3250000D02*
X+350000Y+3250000D01*
D30*
X+368333Y+3218333D02*
X+352500Y+3202500D01*
X+305000Y+3202500D01*
X+273334Y+3234167D01*
X+273334Y+3265833D01*
X+305000Y+3297500D01*
X+352500Y+3297500D01*
X+368333Y+3281667D01*
X+431666Y+3265833D02*
X+463333Y+3297500D01*
X+463333Y+3202500D01*
D21*
X+375400Y+2374320D02*
X+123940Y+2374320D01*
X+123940Y+1825680D01*
X+375400Y+1825680D01*
X+375400Y+2374320D01*
X+123940Y+2374320D01*
X+123940Y+1825680D01*
X+375400Y+1825680D01*
X+375400Y+2374320D01*
D31*
X+265672Y+1971984D02*
X+281674Y+1971984D01*
X+297676Y+1987986D01*
X+297676Y+2051994D01*
X+281674Y+2067996D01*
X+201664Y+2067996D01*
X+233668Y+2132004D02*
X+201664Y+2164008D01*
X+297676Y+2164008D01*
D71*
X+799340Y+2985840D02*
X+1391160Y+2985840D01*
X+1391160Y+3577660D01*
X+799340Y+3577660D01*
X+799340Y+2985840D01*
D32*
X+937432Y+3222568D02*
X+937432Y+3340932D01*
X+1016341Y+3340932D01*
X+1055795Y+3301477D01*
X+1055795Y+3262023D01*
X+1016341Y+3222568D01*
X+937432Y+3222568D01*
X+1114977Y+3321205D02*
X+1134704Y+3340932D01*
X+1193886Y+3340932D01*
X+1213613Y+3321205D01*
X+1213613Y+3301477D01*
X+1193886Y+3281750D01*
X+1134704Y+3281750D01*
X+1114977Y+3262023D01*
X+1114977Y+3222568D01*
X+1213613Y+3222568D01*
D71*
X+1485840Y+3112840D02*
X+2014160Y+3112840D01*
X+2014160Y+3514160D01*
X+1485840Y+3514160D01*
X+1485840Y+3112840D01*
D33*
X+1609116Y+3331110D02*
X+1644337Y+3366331D01*
X+1679558Y+3366331D01*
X+1714779Y+3331110D01*
X+1714779Y+3295889D01*
X+1679558Y+3260668D01*
X+1644337Y+3260668D01*
X+1609116Y+3295889D01*
X+1609116Y+3331110D01*
X+1679558Y+3295889D02*
X+1714779Y+3260668D01*
X+1785221Y+3331110D02*
X+1820442Y+3366331D01*
X+1820442Y+3260668D01*
D71*
X+862840Y+686500D02*
X+1899160Y+686500D01*
X+1899160Y+1575500D01*
X+862840Y+1575500D01*
X+862840Y+686500D01*
D34*
X+1104648Y+1234632D02*
X+1104648Y+1061912D01*
X+1139192Y+1027368D01*
X+1277368Y+1027368D01*
X+1311912Y+1061912D01*
X+1311912Y+1234632D01*
X+1450088Y+1165544D02*
X+1519176Y+1234632D01*
X+1519176Y+1027368D01*
D71*
X+862840Y+1686500D02*
X+2661160Y+1686500D01*
X+2661160Y+2575500D01*
X+862840Y+2575500D01*
X+862840Y+1686500D01*
D35*
X+1335280Y+2291020D02*
X+1335280Y+2024320D01*
X+1388620Y+1970980D01*
X+1601980Y+1970980D01*
X+1655320Y+2024320D01*
X+1655320Y+2291020D01*
X+1815340Y+2237680D02*
X+1868680Y+2291020D01*
X+2028700Y+2291020D01*
X+2082040Y+2237680D01*
X+2082040Y+2184340D01*
X+2028700Y+2131000D01*
X+1868680Y+2131000D01*
X+1815340Y+2077660D01*
X+1815340Y+1970980D01*
X+2082040Y+1970980D01*
D71*
X+2608840Y+2227840D02*
X+3899160Y+2227840D01*
X+3899160Y+3518160D01*
X+2608840Y+3518160D01*
X+2608840Y+2227840D01*
D36*
X+2866904Y+2808484D02*
X+2899162Y+2776226D01*
X+3028194Y+2776226D01*
X+3060452Y+2808484D01*
X+3060452Y+2840742D01*
X+3028194Y+2873000D01*
X+2899162Y+2873000D01*
X+2866904Y+2905258D01*
X+2866904Y+2937516D01*
X+2899162Y+2969774D01*
X+3028194Y+2969774D01*
X+3060452Y+2937516D01*
X+3124968Y+2969774D02*
X+3124968Y+2776226D01*
X+3221742Y+2873000D01*
X+3318516Y+2776226D01*
X+3318516Y+2969774D01*
X+3447548Y+2905258D02*
X+3512064Y+2969774D01*
X+3512064Y+2776226D01*
D71*
X+2911100Y+895100D02*
X+3088900Y+895100D01*
X+3088900Y+2088900D01*
X+2911100Y+2088900D01*
X+2911100Y+895100D01*
D37*
X+3032004Y+1406656D02*
X+2967996Y+1406656D01*
X+2967996Y+1459996D01*
X+2978664Y+1470664D01*
X+2989332Y+1470664D01*
X+3000000Y+1459996D01*
X+3000000Y+1406656D01*
X+3000000Y+1459996D02*
X+3010668Y+1470664D01*
X+3032004Y+1470664D01*
X+2989332Y+1513336D02*
X+2967996Y+1534672D01*
X+3032004Y+1534672D01*
D71*
X+3411100Y+911100D02*
X+3588900Y+911100D01*
X+3588900Y+2104900D01*
X+3411100Y+2104900D01*
X+3411100Y+911100D01*
D37*
X+3532004Y+1422656D02*
X+3467996Y+1422656D01*
X+3467996Y+1475996D01*
X+3478664Y+1486664D01*
X+3489332Y+1486664D01*
X+3500000Y+1475996D01*
X+3500000Y+1422656D01*
X+3500000Y+1475996D02*
X+3510668Y+1486664D01*
X+3532004Y+1486664D01*
X+3478664Y+1518668D02*
X+3467996Y+1529336D01*
X+3467996Y+1561340D01*
X+3478664Y+1572008D01*
X+3489332Y+1572008D01*
X+3500000Y+1561340D01*
X+3500000Y+1529336D01*
X+3510668Y+1518668D01*
X+3532004Y+1518668D01*
X+3532004Y+1572008D01*
D71*
X+3661100Y+911100D02*
X+3838900Y+911100D01*
X+3838900Y+2104900D01*
X+3661100Y+2104900D01*
X+3661100Y+911100D01*
D37*
X+3782004Y+1422656D02*
X+3717996Y+1422656D01*
X+3717996Y+1475996D01*
X+3728664Y+1486664D01*
X+3739332Y+1486664D01*
X+3750000Y+1475996D01*
X+3750000Y+1422656D01*
X+3750000Y+1475996D02*
X+3760668Y+1486664D01*
X+3782004Y+1486664D01*
X+3728664Y+1518668D02*
X+3717996Y+1529336D01*
X+3717996Y+1561340D01*
X+3728664Y+1572008D01*
X+3739332Y+1572008D01*
X+3750000Y+1561340D01*
X+3760668Y+1572008D01*
X+3771336Y+1572008D01*
X+3782004Y+1561340D01*
X+3782004Y+1529336D01*
X+3771336Y+1518668D01*
X+3750000Y+1540004D02*
X+3750000Y+1561340D01*
D19*
X+0Y+500000D02*
X+4000000Y+500000D01*
X+4000000Y+3750000D01*
X+0Y+3750000D01*
X+0Y+500000D01*
M02*
