G04 PROTEUS GERBER X2 FILE*
%TF.GenerationSoftware,Labcenter,Proteus,8.6-SP2-Build23525*%
%TF.CreationDate,2021-09-08T15:11:20+00:00*%
%TF.FileFunction,Soldermask,Top*%
%TF.FilePolarity,Negative*%
%TF.Part,Single*%
%FSLAX45Y45*%
%MOMM*%
G01*
%AMPPAD014*
4,1,4,
-0.571500,1.346200,
0.571500,1.346200,
0.571500,-1.346200,
-0.571500,-1.346200,
-0.571500,1.346200,
0*%
%TA.AperFunction,Material*%
%ADD22PPAD014*%
%ADD23C,1.651000*%
%AMPPAD016*
4,1,36,
-1.016000,1.143000,
1.016000,1.143000,
1.041970,1.140470,
1.065980,1.133200,
1.087580,1.121650,
1.106290,1.106290,
1.121650,1.087570,
1.133200,1.065980,
1.140470,1.041970,
1.143000,1.016000,
1.143000,-1.016000,
1.140470,-1.041970,
1.133200,-1.065980,
1.121650,-1.087570,
1.106290,-1.106290,
1.087580,-1.121650,
1.065980,-1.133200,
1.041970,-1.140470,
1.016000,-1.143000,
-1.016000,-1.143000,
-1.041970,-1.140470,
-1.065980,-1.133200,
-1.087580,-1.121650,
-1.106290,-1.106290,
-1.121650,-1.087570,
-1.133200,-1.065980,
-1.140470,-1.041970,
-1.143000,-1.016000,
-1.143000,1.016000,
-1.140470,1.041970,
-1.133200,1.065980,
-1.121650,1.087570,
-1.106290,1.106290,
-1.087580,1.121650,
-1.065980,1.133200,
-1.041970,1.140470,
-1.016000,1.143000,
0*%
%ADD24PPAD016*%
%TA.AperFunction,Material*%
%ADD25C,1.778000*%
%AMPPAD018*
4,1,36,
-0.635000,0.762000,
0.635000,0.762000,
0.660970,0.759470,
0.684980,0.752200,
0.706580,0.740650,
0.725290,0.725290,
0.740650,0.706570,
0.752200,0.684980,
0.759470,0.660970,
0.762000,0.635000,
0.762000,-0.635000,
0.759470,-0.660970,
0.752200,-0.684980,
0.740650,-0.706570,
0.725290,-0.725290,
0.706580,-0.740650,
0.684980,-0.752200,
0.660970,-0.759470,
0.635000,-0.762000,
-0.635000,-0.762000,
-0.660970,-0.759470,
-0.684980,-0.752200,
-0.706580,-0.740650,
-0.725290,-0.725290,
-0.740650,-0.706570,
-0.752200,-0.684980,
-0.759470,-0.660970,
-0.762000,-0.635000,
-0.762000,0.635000,
-0.759470,0.660970,
-0.752200,0.684980,
-0.740650,0.706570,
-0.725290,0.725290,
-0.706580,0.740650,
-0.684980,0.752200,
-0.660970,0.759470,
-0.635000,0.762000,
0*%
%TA.AperFunction,Material*%
%ADD26PPAD018*%
%ADD27C,1.524000*%
%TA.AperFunction,Material*%
%ADD28C,4.064000*%
%ADD29C,2.032000*%
%TA.AperFunction,Profile*%
%ADD19C,0.203200*%
%TD.AperFunction*%
D22*
X+250000Y+3250000D03*
X+550000Y+3250000D03*
D23*
X+250000Y+2200000D03*
X+250000Y+2000000D03*
D24*
X+1000000Y+3250000D03*
X+1254000Y+3250000D03*
D25*
X+1623000Y+3250000D03*
X+1750000Y+3377000D03*
X+1877000Y+3250000D03*
D26*
X+1000000Y+750000D03*
D27*
X+1254000Y+750000D03*
X+1508000Y+750000D03*
X+1762000Y+750000D03*
X+1762000Y+1512000D03*
X+1508000Y+1512000D03*
X+1254000Y+1512000D03*
X+1000000Y+1512000D03*
D26*
X+1000000Y+1750000D03*
D27*
X+1254000Y+1750000D03*
X+1508000Y+1750000D03*
X+1762000Y+1750000D03*
X+2016000Y+1750000D03*
X+2270000Y+1750000D03*
X+2524000Y+1750000D03*
X+2524000Y+2512000D03*
X+2270000Y+2512000D03*
X+2016000Y+2512000D03*
X+1762000Y+2512000D03*
X+1508000Y+2512000D03*
X+1254000Y+2512000D03*
X+1000000Y+2512000D03*
D28*
X+3000000Y+3000000D03*
X+3508000Y+3000000D03*
D29*
X+3000000Y+2000000D03*
X+3000000Y+984000D03*
X+3500000Y+1000000D03*
X+3500000Y+2016000D03*
X+3750000Y+1000000D03*
X+3750000Y+2016000D03*
D19*
X+0Y+500000D02*
X+4000000Y+500000D01*
X+4000000Y+3750000D01*
X+0Y+3750000D01*
X+0Y+500000D01*
M02*
